<?xml version="1.0" encoding="UTF-8" standalone="no"?>
<!-- Created with Inkscape (http://www.inkscape.org/) -->

<svg
   xmlns:dc="http://purl.org/dc/elements/1.1/"
   xmlns:cc="http://creativecommons.org/ns#"
   xmlns:rdf="http://www.w3.org/1999/02/22-rdf-syntax-ns#"
   xmlns:svg="http://www.w3.org/2000/svg"
   xmlns="http://www.w3.org/2000/svg"
   xmlns:sodipodi="http://sodipodi.sourceforge.net/DTD/sodipodi-0.dtd"
   xmlns:inkscape="http://www.inkscape.org/namespaces/inkscape"
   width="625.96875"
   height="148.8125"
   id="svg3062"
   version="1.1"
   inkscape:version="0.92.1 r15371"
   sodipodi:docname="harlen.svg">
  <defs
     id="defs3064" />
  <sodipodi:namedview
     id="base"
     pagecolor="#ffffff"
     bordercolor="#666666"
     borderopacity="1.0"
     inkscape:pageopacity="0.0"
     inkscape:pageshadow="2"
     inkscape:zoom="0.35"
     inkscape:cx="310.84375"
     inkscape:cy="32.981567"
     inkscape:document-units="px"
     inkscape:current-layer="layer1"
     showgrid="false"
     inkscape:window-width="675"
     inkscape:window-height="739"
     inkscape:window-x="685"
     inkscape:window-y="23"
     inkscape:window-maximized="0"
     fit-margin-top="0"
     fit-margin-left="0"
     fit-margin-right="0"
     fit-margin-bottom="0" />
  <metadata
     id="metadata3067">
    <rdf:RDF>
      <cc:Work
         rdf:about="">
        <dc:format>image/svg+xml</dc:format>
        <dc:type
           rdf:resource="http://purl.org/dc/dcmitype/StillImage" />
        <dc:title />
      </cc:Work>
    </rdf:RDF>
  </metadata>
  <g
     inkscape:label="Layer 1"
     inkscape:groupmode="layer"
     id="layer1"
     transform="translate(-64.15625,-416.53125)">
    <path
       style="fill:#ffffff"
       d="m 392.89566,554.19463 c -1.94677,-0.2704 -2.60148,-0.39088 -3.93972,-0.72498 -6.6596,-1.6626 -14.72927,-6.23661 -23.7385,-13.45544 -5.36367,-4.29775 -9.8923,-8.44333 -18.19878,-16.65931 -7.87355,-7.7877 -10.04775,-9.91067 -16.05713,-15.67842 l -4.77444,-4.58245 0,-1.9893 0,-1.9893 2.30376,-2.7e-4 c 8.85875,-0.002 17.21366,-1.91356 23.41661,-5.35976 2.73616,-1.52011 4.71531,-3.04135 6.86596,-5.27742 4.12352,-4.28717 6.49036,-9.58688 7.28059,-16.30238 0.23426,-1.99089 0.26703,-6.40193 0.0597,-8.05041 -1.29314,-10.28625 -7.71562,-16.89458 -19.13896,-19.69297 -4.34026,-1.06325 -7.15569,-1.27146 -17.21529,-1.27318 l -7.71252,-0.002 0,41.46751 0,41.46752 -4.27362,0 -4.27362,0 0,-44.78466 0,-44.78465 4.6293,-0.0884 c 10.43868,-0.19934 20.98623,-0.0147 24.81862,0.43459 8.735,1.02394 15.86318,3.58192 21.22258,7.61589 4.92027,3.70337 8.14801,8.6334 9.69308,14.80483 1.15838,4.62705 1.13126,11.65755 -0.0659,17.18829 -2.12383,9.80886 -7.74313,17.24254 -16.4927,21.81802 -5.96777,3.12077 -12.80606,4.8539 -19.9292,5.05095 l -2.90151,0.0803 2.50089,1.68594 c 6.84015,4.6113 12.35608,9.21651 25.20786,21.04572 7.09873,6.53394 9.80327,8.90991 13.35166,11.7297 6.17134,4.90413 11.67766,7.91545 16.88945,9.23657 2.527,0.64056 3.77296,0.787 6.74902,0.79322 2.62503,0.005 2.89709,-0.0175 4.24928,-0.3593 3.08804,-0.78051 5.47812,-1.99121 6.87696,-3.4835 l 0.70934,-0.75666 1.32731,1.02228 c 0.73011,0.56225 1.3274,1.06795 1.3274,1.12381 0,0.21461 -1.073,1.43981 -2.16312,2.46995 -3.14243,2.9696 -7.84728,5.11072 -13.19521,6.00494 -1.23774,0.20695 -4.60837,0.36534 -5.40884,0.25415 z m -314.845943,-73.04177 0,-44.93985 4.27362,0 4.273616,0 0,26.57661 0,26.5766 33.187407,0 33.18733,0 0,-26.5766 0,-26.57661 4.2069,0 4.20683,0 0,44.93985 0,44.93983 -4.20683,0 -4.2069,0 0,-15.49189 0,-15.4919 -33.18733,0 -33.187407,0 0,15.4919 0,15.49189 -4.273616,0 -4.27362,0 0,-44.93983 z m 337.482773,0 0,-44.93985 4.20691,0 4.20682,0 0,42.0685 0,42.06849 24.10596,0 24.10588,0 0,2.87135 0,2.87134 -28.31278,0 -28.31279,0 0,-44.93983 z m 85.33897,0 0,-44.93985 28.11247,0 28.11239,0 0,2.87135 0,2.87134 -23.90556,0 -23.90557,0 0,23.70526 0,23.70526 20.23295,0 20.23288,0 0,2.87091 0,2.87091 -20.19948,0.0338 -20.19956,0.0339 -0.0341,12.58716 -0.0341,12.58716 23.90627,0 23.90626,0 0,2.87134 0,2.87134 -28.11239,0 -28.11247,0 0,-44.93983 z m 88.14354,0 0,-44.93985 2.83797,0.002 2.8379,0.002 35.72488,38.67489 35.7248,38.67488 0.0333,-38.67747 0.0333,-38.67747 2.87106,0 2.87114,0 0,44.9424 0,44.94238 -2.91577,-0.036 -2.91577,-0.036 -35.64701,-38.83901 -35.647,-38.83901 -0.0333,38.8724 -0.0333,38.8724 -2.87106,0 -2.87114,0 0,-44.93984 z m -399.84884,44.70611 c 0,-0.0551 10.65937,-20.23294 23.68465,-44.83967 l 23.6824,-44.73951 1.25594,-0.0362 1.25603,-0.0363 19.69875,38.89199 c 10.83434,21.39059 21.06015,41.58475 22.72408,44.8759 l 3.02535,5.9839 -4.23271,0 -4.23278,0 -5.06944,-10.01514 -5.06951,-10.01514 -28.847,7.7e-4 -28.84699,7.8e-4 -5.34197,10.01142 -5.34204,10.01142 -4.17351,0.003 c -2.29539,0.002 -4.17241,-0.0421 -4.17125,-0.0973 z m 73.71694,-25.7753 c 0,-0.25226 -24.92192,-49.33427 -25.03986,-49.31873 -0.10135,0.0133 -26.13308,48.45276 -26.46838,49.25196 -0.0558,0.13321 5.13957,0.16694 25.71952,0.16694 14.18429,0 25.78919,-0.0451 25.78872,-0.10017 z"
       id="path3049"
       inkscape:connector-curvature="0" />
  </g>
</svg>
